<svg version="1.2" xmlns="http://www.w3.org/2000/svg" viewBox="0 0 36 38" width="36" height="38">
	<title>Vector Smart Object-ai</title>
	<style>
		.s0 { fill: #ffffff } 
	</style>
	<g id="Layer 1">
		<g id="&lt;Group&gt;">
			<path id="&lt;Compound Path&gt;" class="s0" d="m4.1 30.8v-26.7h21.6v22.4l4.1-3.4v-21c0-1.2-0.9-2.1-2.1-2.1h-25.6c-1.2 0-2.1 0.9-2.1 2.1v30.8c0 1.1 0.9 2 2.1 2h17.9l-2.9-4.1z"/>
			<path id="&lt;Compound Path&gt;" class="s0" d="m35.7 22.1c-0.4-0.4-1-0.4-1.4-0.1l-9.4 7.8-6.3-3.7c-0.4-0.3-0.9-0.2-1.2 0.1-0.4 0.4-0.4 0.9-0.1 1.3l6.8 9.7c0.2 0.2 0.5 0.4 0.8 0.4 0.3 0 0.7-0.2 0.8-0.4l10.1-13.8c0.3-0.4 0.3-1-0.1-1.3z"/>
			<path id="&lt;Compound Path&gt;" class="s0" d="m21.1 7.2h-12.4c-1.1 0-2 0.9-2 2 0 1.2 0.9 2.1 2 2.1h12.4c1.1 0 2-0.9 2-2.1 0-1.1-0.9-2-2-2z"/>
			<path id="&lt;Compound Path&gt;" class="s0" d="m21.1 13.4h-12.4c-1.1 0-2 0.9-2 2 0 1.1 0.9 2.1 2 2.1h12.4c1.1 0 2-1 2-2.1 0-1.1-0.9-2-2-2z"/>
			<path id="&lt;Compound Path&gt;" class="s0" d="m21.1 19.5h-12.4c-1.1 0-2 0.9-2 2.1 0 1.1 0.9 2 2 2h12.4c1.1 0 2-0.9 2-2 0-1.2-0.9-2.1-2-2.1z"/>
		</g>
	</g>
</svg>