<svg version="1.2" xmlns="http://www.w3.org/2000/svg" viewBox="0 0 19 19" width="19" height="19">
	<title>Vector Smart Object-ai</title>
	<style>
		.s0 { fill: #8A8A8A } 
	</style>
	<g id="Layer 1">
		<g id="&lt;Group&gt;">
			<path id="&lt;Compound Path&gt;" fill-rule="evenodd" class="s0" d="m18.9 9.4c0 5.3-4.2 9.5-9.5 9.5-5.2 0-9.4-4.2-9.4-9.5 0-5.2 4.2-9.4 9.4-9.4 5.3 0 9.5 4.2 9.5 9.4zm-7.3 4.6q-0.1 0-0.4 0.1-0.3 0.1-0.5 0.1-0.5 0-0.7-0.2-0.2-0.1-0.2-0.5 0-0.2 0.1-0.5 0-0.4 0.1-0.6l0.6-2.2q0.1-0.3 0.1-0.6 0.1-0.4 0.1-0.5 0-0.7-0.5-1.1-0.5-0.4-1.4-0.4-0.4 0-1 0.1-0.5 0.2-1.1 0.5l-0.2 0.6q0.2-0.1 0.4-0.1 0.3-0.1 0.5-0.1 0.5 0 0.7 0.2 0.1 0.1 0.1 0.5 0 0.3 0 0.5-0.1 0.3-0.2 0.6l-0.6 2.2q0 0.3-0.1 0.6 0 0.3 0 0.5 0 0.7 0.5 1.1 0.5 0.4 1.3 0.4 0.6 0 1.1-0.1 0.4-0.2 1.1-0.5zm0.2-8.9q0-0.6-0.5-1-0.4-0.4-1-0.4-0.6 0-1 0.4-0.4 0.4-0.4 1 0 0.5 0.4 0.9 0.4 0.4 1 0.4 0.6 0 1-0.4 0.5-0.4 0.5-0.9z"/>
		</g>
	</g>
</svg>