<svg version="1.2" xmlns="http://www.w3.org/2000/svg" viewBox="0 0 306 255" width="306" height="255">
	<title>Vector Smart Object-ai</title>
	<defs>
		<radialGradient id="g1" cx="153.3" cy="128.2" r="154" gradientUnits="userSpaceOnUse">
			<stop offset="0" stop-color="#1d4b9f"/>
			<stop offset="1" stop-color="#00356b"/>
		</radialGradient>
	</defs>
	<style>
		.s0 { fill: url(#g1) } 
		.s1 { fill: #fefefe } 
	</style>
	<g id="Layer 1">
		<path id="&lt;Path&gt;" class="s0" d="m307.2 255.7h-307.9v-255h307.9z"/>
		<path id="&lt;Compound Path&gt;" class="s1" d="m130.7 104.8q-2.3 0-5.9-0.1-3.5 0-7.7-0.1-4.1 0-8.6-0.1-4.5 0-8.8 0-4.3 0-8.2 0-3.9 0.1-6.8 0.2v19.4q0 5.5 0.2 9.7 0.1 4.1 0.3 7.1 0.2 3 0.5 5.1 0.4 2 0.7 3.3v0.3h-14.1v-0.3q0.3-1.3 0.6-3.3 0.4-2.1 0.6-5.1 0.2-3 0.4-7.1 0.1-4.2 0.1-9.7v-42.5q0-5.5-0.1-9.7-0.2-4.1-0.4-7.2-0.2-3-0.6-5-0.3-2-0.6-3.4v-0.3h14.1v0.3q-0.3 1.4-0.7 3.4-0.3 2-0.5 5-0.2 3.1-0.3 7.2-0.2 4.2-0.2 9.7v16.7q3.1 0.1 7 0.2 3.8 0 8.1 0 4.2-0.1 8.6-0.1 4.4-0.1 8.5-0.2 4.1-0.1 7.7-0.2 3.5-0.1 6.1-0.3v-16.1q0-5.5-0.1-9.7-0.2-4.1-0.4-7.2-0.2-3-0.5-5-0.3-2-0.7-3.4v-0.3h14.1v0.3q-0.3 1.4-0.6 3.4-0.4 2-0.6 5-0.2 3.1-0.3 7.2-0.2 4.2-0.2 9.7v42.5q0 5.5 0.2 9.7 0.1 4.1 0.3 7.1 0.2 3 0.6 5.1 0.3 2 0.6 3.3v0.3h-14.1v-0.3q0.4-1.3 0.7-3.3 0.3-2.1 0.5-5.1 0.2-3 0.4-7.1 0.1-4.2 0.1-9.7z"/>
		<path id="&lt;Compound Path&gt;" fill-rule="evenodd" class="s1" d="m181.9 136.6q-0.9 4.9-3.8 8.3 2.4 2.5 5 4.6 2.6 2.1 5.2 3.7 2.5 1.6 4.8 2.4 2.3 0.9 4.3 0.9 0.8 0 1.5-0.1v0.5q-0.2 0.2-0.7 0.4-0.5 0.2-1.2 0.4-0.7 0.2-1.6 0.3-1 0.2-2.1 0.2-1.9 0-4.1-0.8-2.2-0.8-4.6-2.2-2.4-1.4-4.8-3.4-2.4-1.9-4.7-4.2-2.1 1.4-4.7 2.2-2.5 0.8-5.5 0.8-2.7 0-4.9-0.7-2.2-0.7-3.7-1.9-1.5-1.3-2.3-3.1-0.8-1.9-0.8-4.1 0-2.2 0.8-3.9 0.8-1.6 2.1-3 1.3-1.3 2.9-2.4 1.7-1.2 3.5-2.2-0.7-1.8-1.1-3.6-0.4-1.7-0.4-3.3 0-1.9 0.6-3.5 0.6-1.6 1.7-2.6 1.1-1.1 2.5-1.7 1.5-0.6 3.1-0.6 1.2 0 2.3 0.3 1.1 0.4 1.9 1.1 0.8 0.6 1.2 1.6 0.5 1.1 0.5 2.4 0 1.6-0.7 3-0.7 1.3-1.8 2.4-1.2 1.1-2.6 2.1-1.5 0.9-3 1.8 0.7 1.9 1.8 3.8 1.1 1.9 2.4 3.7 1.3 1.9 2.8 3.7 1.4 1.8 3 3.6 1.2-1.6 1.9-3.7 0.6-2 0.6-4.4 0-2.1-0.2-3.5-0.2-1.4-0.5-2.4v-0.1h4.4v0.1q-0.2 0.6-0.3 1.4 0 0.7-0.1 1.6-0.1 0.8-0.3 1.9-0.1 1-0.3 2.2zm-15.2 11.8q2 0 3.8-0.5 1.8-0.6 3.3-1.6-1.6-1.8-3.2-3.7-1.5-1.8-2.9-3.8-1.4-1.9-2.5-3.9-1.2-2-2-3.9-1.2 0.8-2.1 1.6-1 0.9-1.8 1.9-0.7 1.1-1.1 2.3-0.4 1.2-0.4 2.6 0 1.9 0.6 3.6 0.7 1.6 1.9 2.8 1.2 1.2 2.8 1.9 1.7 0.7 3.6 0.7zm-1.8-27.3q0 1.4 0.3 2.9 0.3 1.5 0.9 3.2 1.2-0.8 2.2-1.6 1-0.8 1.8-1.8 0.8-0.9 1.2-2 0.4-1.1 0.4-2.4 0-0.7-0.1-1.4-0.2-0.6-0.6-1.1-0.4-0.5-0.9-0.8-0.6-0.3-1.4-0.3-1.9 0-2.9 1.4-0.9 1.4-0.9 3.9z"/>
		<path id="&lt;Compound Path&gt;" class="s1" d="m234.9 110.1h-1.7q-0.6-1.5-1.9-3.4-1.3-1.9-3.5-3.6-2.1-1.6-5.2-2.7-3.1-1.2-7.2-1.2-3.7 0-6.6 1-2.9 1-4.8 2.8-1.9 1.7-2.9 4.1-1 2.5-1 5.4 0 4.7 3.1 9 3 4.2 7.7 8.4 4.6 4.2 9.9 8.4 5.4 4.1 10 8.6 4.6 4.6 7.7 9.5 3 4.9 3 10.6 0 4.2-1.7 8.5-1.7 4.3-5.2 7.7-3.6 3.4-9.2 5.5-5.6 2.1-13.3 2.1-4.3 0-8.2-0.7-3.9-0.7-7.1-1.7-3.3-1-5.9-2.2-2.6-1.1-4.3-2.1l1.7-14.4h1.9q0.9 3 2.8 5.8 1.8 2.8 4.6 4.9 2.8 2.1 6.3 3.4 3.6 1.3 7.8 1.3 3.8 0 6.9-1.1 3.1-1 5.2-2.8 2.2-1.8 3.4-4.2 1.2-2.5 1.2-5.4 0-4.2-1.8-7.7-1.7-3.4-4.5-6.6-2.9-3.1-6.5-6-3.5-3-7.3-6-3.8-2.9-7.4-6.1-3.6-3.1-6.4-6.6-2.8-3.6-4.6-7.7-1.7-4.1-1.7-8.9 0-5.2 2.3-9.3 2.3-4.2 6.1-7.1 3.8-3 8.7-4.5 4.8-1.6 9.9-1.6 3.8 0 7 0.5 3.1 0.5 5.7 1.3 2.5 0.7 4.4 1.4 1.9 0.7 3.1 1.2z"/>
	</g>
</svg>